<?xml version="1.0" encoding="UTF-8" standalone="no"?>
<!DOCTYPE svg PUBLIC "-//W3C//DTD SVG 1.1//EN" "http://www.w3.org/Graphics/SVG/1.1/DTD/svg11.dtd">
<svg version="1.1" xmlns="http://www.w3.org/2000/svg" xmlns:xlink="http://www.w3.org/1999/xlink" preserveAspectRatio="xMidYMid meet" viewBox="-1 165.23691015957448 491 158.5260898404256" width="487" height="154.53"><defs><path d="M365.5 167.58C360.72 164.82 354.6 166.46 351.84 171.24C349.08 176.02 350.72 182.14 355.5 184.9C361.11 188.14 389.19 204.35 439.71 233.52C181.89 233.52 38.65 233.52 10 233.52C4.48 233.52 0 238 0 243.52C0 249.04 4.48 253.52 10 253.52C38.64 253.52 181.86 253.52 439.65 253.52C389.16 282.67 361.11 298.86 355.5 302.1C350.72 304.86 349.08 310.98 351.84 315.76C353.69 318.97 357.05 320.76 360.51 320.76C362.21 320.76 363.92 320.33 365.5 319.42C377.15 312.69 470.35 258.89 482 252.16C485.09 250.37 487 247.07 487 243.5C487 239.93 485.09 236.63 482 234.84C458.7 221.39 377.15 174.3 365.5 167.58Z" id="bMXPP27J"></path></defs><g><g><use xlink:href="#bMXPP27J" opacity="1" fill="#000000" fill-opacity="1"></use><g><use xlink:href="#bMXPP27J" opacity="1" fill-opacity="0" stroke="#000000" stroke-width="1" stroke-opacity="0"></use></g></g></g></svg>