<?xml version="1.0" encoding="UTF-8"?>
<svg width="30px" height="29px" viewBox="0 0 30 29" version="1.1" xmlns="http://www.w3.org/2000/svg" xmlns:xlink="http://www.w3.org/1999/xlink">
    <!-- Generator: Sketch 49 (51002) - http://www.bohemiancoding.com/sketch -->
    <title>mad-poi-03</title>
    <desc>Created with Sketch.</desc>
    <defs>
        <polygon id="path-1" points="0.000146991814 0.5990625 29.7084816 0.5990625 29.7084816 29.0624642 0.000146991814 29.0624642"/>
    </defs>
    <g id="Website" stroke="none" stroke-width="1" fill="none" fill-rule="evenodd">
        <g id="MAD---Work" transform="translate(-516.000000, -2942.000000)">
            <g id="Projects-of-Interest" transform="translate(0.000000, 2396.000000)">
                <g id="mad-poi-03" transform="translate(516.000000, 545.000000)">
                    <g id="Group-6">
                        <path d="M20.4860833,10.162125 C20.8510833,10.4715 21.2060833,10.8043125 21.53275,11.1643125 C21.3835833,10.9805625 21.23275,10.794 21.06275,10.584 C20.8460833,10.344 20.6894167,10.278375 20.4860833,10.162125" id="Fill-1" fill="#CACAE4"/>
                        <path d="M22.3708333,12.2294062 C22.42,12.3034687 22.475,12.3747187 22.5158333,12.4469062 C22.5616667,12.5097187 22.6075,12.5706562 22.6483333,12.6269062 C22.5591667,12.4919062 22.4691667,12.3559688 22.3708333,12.2294062" id="Fill-3" fill="#CACAE4"/>
                        <path d="M23.5395,14.5319063 C23.427,14.0772188 23.2395,13.6722188 23.0495,13.2934688 C23.1936667,13.6431563 23.377,14.0387812 23.5395,14.5319063" id="Fill-5" fill="#CACAE4"/>
                        <path d="M22.7366667,12.6038437 C22.7966667,12.7594687 22.8108333,12.8438437 22.6541667,12.6347812 C22.6541667,12.6347812 22.6508333,12.6300937 22.6483333,12.6263438 C22.7958333,12.8354062 22.9183333,13.0604062 23.0491667,13.2929062 C22.9358333,13.0435313 22.8333333,12.8166562 22.7366667,12.6038437" id="Fill-7" fill="#CACAE4"/>
                        <path d="M22.7366667,12.6038437 C22.68,12.4538437 22.5716667,12.2260313 22.5325,12.1482187 C22.5966667,12.2907187 22.665,12.4425937 22.7366667,12.6038437" id="Fill-9" fill="#CACAE4"/>
                        <path d="M23.6733333,12.7869375 C23.815,13.041 23.6216667,13.0775625 23.8791667,13.5819375 C24.4216667,14.79975 24.6866667,16.016625 24.6008333,17.3235 C24.6266667,17.9385 24.2225,18.8019375 24.0841667,19.350375 C23.9258333,20.0150625 23.4866667,21.1419375 23.1116667,21.8235 C22.7425,22.504125 22.5741667,22.8331875 23.155,22.00725 C23.9858333,20.7285 24.4433333,19.4535 24.6266667,18.180375 C24.8116667,16.90725 24.7433333,15.621 24.3325,14.2588125 C23.59,12.0538125 22.1225,10.470375 20.4366667,9.2844375 C19.9633333,8.9413125 19.5266667,8.6356875 19.0716667,8.3394375 C19.6583333,8.736 20.2416667,9.169125 20.8558333,9.7138125 C21.6225,10.4544375 22.7708333,11.166 23.6733333,12.7869375" id="Fill-11" fill="#CACAE4"/>
                        <path d="M10.88975,6.62728125 C11.1330833,6.60290625 11.6214167,6.55228125 11.6214167,6.55228125 C12.70475,6.75009375 13.8305833,6.85696875 14.9580833,7.10353125 C14.8014167,7.02571875 14.6430833,6.94696875 14.4839167,6.86728125 C13.8364167,6.73040625 13.7530833,6.78853125 14.3155833,6.95259375 C13.0355833,6.52228125 11.7514167,6.38728125 10.45725,6.48196875 C10.5405833,6.53915625 10.52725,6.61040625 10.88975,6.62728125" id="Fill-13" fill="#CACAE4"/>
                        <path d="M9.69991667,6.5623125 C9.95325,6.535125 10.2074167,6.497625 10.4574167,6.4816875 C10.4515833,6.475125 10.4390833,6.4695 10.4290833,6.463875 C10.1740833,6.49575 9.92075,6.5285625 9.67241667,6.5595 L9.69991667,6.5623125 Z" id="Fill-15" fill="#CACAE4"/>
                        <g id="Group-19" transform="translate(0.000000, 0.338531)">
                            <mask id="mask-2" fill="white">
                                <use xlink:href="#path-1"/>
                            </mask>
                            <g id="Clip-18"/>
                            <path d="M23.3063333,19.7745 C22.5696667,21.407625 21.4255,22.7135625 20.1588333,23.70075 C18.8655,24.655125 17.4821667,25.397625 16.048,25.87575 C15.8371667,25.9835625 15.6913333,26.080125 15.3863333,26.143875 C15.1346667,26.1766875 14.9063333,26.20575 14.6838333,26.2348125 C14.2563333,26.3379375 13.823,26.3895 13.393,26.4373125 C13.2438333,26.46825 13.0913333,26.4823125 12.9363333,26.4945 L12.9238333,26.496375 C12.6805,26.533875 12.7538333,26.5648125 12.9071667,26.5910625 C13.0705,26.6060625 13.2271667,26.622 13.373,26.635125 C13.2863333,26.63325 13.058,26.61825 12.9071667,26.5910625 C12.6988333,26.571375 12.4696667,26.563875 12.2013333,26.55825 C11.8038333,26.5460625 11.383,26.578875 10.9571667,26.4945 C11.4346667,26.541375 11.8471667,26.515125 12.2013333,26.55825 C12.4521667,26.5366875 12.6938333,26.515125 12.9363333,26.4945 C13.0055,26.4841875 13.0746667,26.473875 13.1471667,26.4645 C12.153,26.53575 11.1621667,26.4729375 10.1888333,26.2929375 C9.96466667,26.25075 9.75133333,26.211375 9.5755,26.1785625 C8.8705,26.038875 8.17716667,25.810125 7.803,25.52325 C7.63883333,25.4585625 7.4755,25.3798125 7.318,25.2879375 L7.40383333,25.3545 C7.33633333,25.3104375 7.27966667,25.272 7.23133333,25.240125 C6.89383333,25.06575 6.56133333,24.8791875 6.24633333,24.655125 C5.91966667,24.4535625 5.61216667,24.216375 5.3105,23.9679375 C4.88466667,23.7045 4.46633333,23.3885625 4.07466667,23.0341875 C4.07466667,23.0341875 3.8705,22.722 3.78133333,22.5616875 C3.603,22.44075 3.378,22.228875 3.14716667,21.9448125 C3.3605,22.337625 3.5705,22.692 3.79633333,22.997625 C4.10716667,23.4823125 4.773,23.682 5.16383333,24.220125 C4.773,23.682 4.10716667,23.4823125 3.79633333,22.997625 C3.5705,22.692 3.3605,22.337625 3.14716667,21.9448125 C2.6505,21.3673125 2.19966667,20.4410625 1.9955,19.645125 C2.4405,20.5348125 2.7855,21.287625 3.14716667,21.9448125 C3.378,22.228875 3.603,22.44075 3.78133333,22.5616875 C3.8705,22.722 4.07466667,23.0341875 4.07466667,23.0341875 C4.46633333,23.3885625 4.88466667,23.7045 5.3105,23.9679375 C4.11883333,23.027625 3.06883333,21.8145 2.37216667,20.3379375 C1.2555,17.94825 1.11633333,15.152625 1.52216667,12.580125 C1.94216667,10.00575 2.89216667,7.4960625 4.47216667,5.6210625 C5.268,4.6948125 6.22383333,3.9298125 7.2705,3.3823125 C8.32466667,2.847 9.47133333,2.5329375 10.6446667,2.428875 C13.0021667,2.230125 15.4221667,2.87325 17.678,4.060125 C20.128,5.34825 22.2755,7.1848125 24.0721667,9.312 C24.9671667,10.386375 25.8163333,11.4954375 26.4521667,12.7029375 C27.0971667,13.9095 27.5755,15.2210625 27.7455,16.5345 C27.9263333,17.8404375 27.7571667,19.1360625 27.2155,20.1795 C26.6713333,21.2304375 25.7613333,22.0291875 24.7271667,22.74825 C22.6738333,24.2154375 20.4563333,25.3329375 18.1338333,26.005125 C15.8171667,26.6810625 13.3838333,26.8995 10.9955,26.6023125 C9.82383333,26.451375 8.76216667,26.0810625 8.01133333,25.31325 C7.2605,24.5641875 6.74383333,23.3960625 6.468,22.1445 C6.24966667,21.1779375 6.10133333,19.9741875 6.163,18.6316875 C6.21883333,17.2929375 6.47133333,15.8379375 6.89966667,14.4373125 C7.73883333,11.6079375 9.293,9.1291875 10.583,7.7904375 C11.3905,6.81825 11.9505,6.2745 12.2555,5.8948125 C12.5663333,5.526375 12.6238333,5.3135625 12.5388333,5.1973125 C12.3746667,4.9573125 11.628,5.14575 11.513,5.2085625 C9.96883333,5.8498125 8.78216667,6.962625 7.61883333,8.6379375 C7.0405,9.4854375 6.45966667,10.4848125 5.89966667,11.7298125 C5.33716667,12.9729375 4.77216667,14.458875 4.35716667,16.337625 C4.63633333,15.0579375 4.82883333,14.697 4.8205,14.8929375 C4.82383333,15.0935625 4.66133333,15.8641875 4.5355,16.962 C4.40716667,18.057 4.32716667,19.4848125 4.478,20.952 C4.618,22.4145 4.9855,23.8910625 5.49466667,25.0845 C5.84633333,25.945125 6.42216667,26.841375 7.24133333,27.5116875 C8.05383333,28.1895 9.05133333,28.5945 10.0263333,28.797 C11.9605,29.1635625 13.918,29.1335625 15.9455,28.8110625 C17.9571667,28.472625 19.9613333,27.8079375 21.8413333,26.8910625 C22.7863333,26.442 23.6921667,25.9123125 24.5705,25.3591875 C25.448,24.792 26.2796667,24.2398125 27.1255,23.5095 C27.9538333,22.7904375 28.7763333,21.7685625 29.2438333,20.4485625 C29.713,19.14825 29.8105,17.650125 29.5971667,16.221375 C29.0646667,12.460125 26.9605,9.627 24.8905,7.34325 C22.758,5.012625 20.2371667,3.1029375 17.418,1.8804375 C14.6188333,0.66075 11.3771667,0.1141875 8.233,1.1285625 C6.678,1.6460625 5.18966667,2.5498125 3.9655,3.80325 C2.6905,5.05575 1.78133333,6.6766875 1.103,8.3698125 C0.389666667,10.182 0.0813333333,12.0204375 0.0113333333,13.7810625 C-0.0511666667,15.5435625 0.148,17.2479375 0.614666667,18.8360625 C0.953,19.990125 1.42716667,21.177 2.06216667,22.16325 C2.68883333,23.155125 3.428,23.9641875 4.11216667,24.565125 C6.28633333,26.425125 8.63716667,27.30075 10.8571667,27.4198125 C9.61883333,27.3016875 8.54966667,27.036375 7.5005,26.597625 C6.45216667,26.16075 5.403,25.5766875 4.27383333,24.6485625 C3.538,23.998875 3.833,24.1816875 4.4355,24.5998125 C5.048,25.00575 6.00383333,25.573875 6.56716667,25.8260625 C7.0405,26.046375 7.71883333,26.61075 8.2355,26.751375 C9.32466667,27.1310625 10.3771667,27.2398125 11.5788333,27.2454375 C12.0946667,27.212625 12.033,27.441375 12.2938333,27.4160625 C13.9613333,27.327 15.1438333,26.7354375 16.143,26.473875 C16.5196667,26.350125 16.8788333,26.2329375 17.2271667,26.1185625 C17.5671667,25.9760625 17.8963333,25.840125 18.2221667,25.705125 C18.6155,25.4895 19.0246667,25.3095 19.4163333,25.02825 C19.6555,24.8473125 19.908,24.6766875 20.1513333,24.475125 C19.9196667,24.567 19.8046667,24.5295 19.6996667,24.505125 C20.0738333,24.28575 20.5963333,23.9360625 20.9388333,23.64825 C20.5963333,23.9360625 20.0738333,24.28575 19.6996667,24.505125 C19.8046667,24.5295 19.9196667,24.567 20.1513333,24.475125 C21.898,23.07825 23.603,20.8310625 24.083,18.2791875 L24.0571667,18.30825 C23.743,19.7660625 23.0196667,21.0560625 22.0138333,22.078875 C22.4371667,21.621375 22.4388333,21.7245 21.9896667,22.2935625 C21.8513333,22.4116875 21.6971667,22.513875 21.5555,22.6216875 C22.3605,21.6691875 23.0105,20.6041875 23.588,19.536375 C23.588,19.536375 23.6288333,19.40325 23.6796667,19.2373125 C23.7196667,19.0666875 23.7671667,18.86325 23.798,18.7291875 C23.938,18.34575 23.9813333,18.3766875 24.0571667,18.30825 C24.1305,18.0279375 24.1588333,17.7316875 24.2013333,17.4410625 C24.1096667,17.7410625 23.9505,18.3579375 23.7321667,18.8604375 C23.5321667,19.3695 23.3063333,19.7745 23.3063333,19.7745" id="Fill-17" fill="#CACAE4" mask="url(#mask-2)"/>
                        </g>
                        <path d="M12.1715,26.88975 C12.3473333,26.876625 12.5623333,26.8625625 12.7906667,26.846625 C11.959,26.9038125 11.1265,26.8100625 10.3015,26.6844375 C10.7256667,26.8588125 11.4498333,26.916 12.1715,26.88975" id="Fill-20" fill="#CACAE4"/>
                    </g>
                    <rect id="Bounds" x="0" y="1" width="30" height="30"/>
                </g>
            </g>
        </g>
    </g>
</svg>